<svg width="256" height="256" shape-rendering="crispEdges" xmlns="http://www.w3.org/2000/svg" viewBox="0 0 49 49" class="shadow-nr15"><path fill="#fff" d="M0,0 h49v49H0z"></path><path fill="#000" d="M4 4h7v1H4zM12 4h5v1H12zM19 4h1v1H19zM21 4h1v1H21zM23 4h1v1H23zM26 4h2v1H26zM30 4h1v1H30zM33 4h1v1H33zM35 4h1v1H35zM38,4 h7v1H38zM4 5h1v1H4zM10 5h1v1H10zM12 5h4v1H12zM22 5h2v1H22zM25 5h1v1H25zM27 5h1v1H27zM31 5h1v1H31zM33 5h1v1H33zM36 5h1v1H36zM38 5h1v1H38zM44,5 h1v1H44zM4 6h1v1H4zM6 6h3v1H6zM10 6h1v1H10zM12 6h2v1H12zM15 6h1v1H15zM17 6h1v1H17zM19 6h2v1H19zM25 6h1v1H25zM27 6h1v1H27zM30 6h1v1H30zM33 6h2v1H33zM36 6h1v1H36zM38 6h1v1H38zM40 6h3v1H40zM44,6 h1v1H44zM4 7h1v1H4zM6 7h3v1H6zM10 7h1v1H10zM13 7h1v1H13zM19 7h1v1H19zM21 7h4v1H21zM31 7h2v1H31zM36 7h1v1H36zM38 7h1v1H38zM40 7h3v1H40zM44,7 h1v1H44zM4 8h1v1H4zM6 8h3v1H6zM10 8h1v1H10zM13 8h2v1H13zM16 8h2v1H16zM20 8h1v1H20zM22 8h2v1H22zM26 8h2v1H26zM29 8h2v1H29zM33 8h3v1H33zM38 8h1v1H38zM40 8h3v1H40zM44,8 h1v1H44zM4 9h1v1H4zM10 9h1v1H10zM12 9h2v1H12zM15 9h1v1H15zM17 9h1v1H17zM19 9h3v1H19zM26 9h1v1H26zM28 9h4v1H28zM36 9h1v1H36zM38 9h1v1H38zM44,9 h1v1H44zM4 10h7v1H4zM12 10h1v1H12zM14 10h1v1H14zM16 10h1v1H16zM18 10h1v1H18zM20 10h1v1H20zM22 10h1v1H22zM24 10h1v1H24zM26 10h1v1H26zM28 10h1v1H28zM30 10h1v1H30zM32 10h1v1H32zM34 10h1v1H34zM36 10h1v1H36zM38,10 h7v1H38zM12 11h1v1H12zM16 11h1v1H16zM20 11h5v1H20zM27 11h1v1H27zM30 11h2v1H30zM35 11h2v1H35zM6 12h3v1H6zM10 12h1v1H10zM12 12h4v1H12zM19 12h2v1H19zM25 12h7v1H25zM33 12h1v1H33zM35 12h1v1H35zM37 12h3v1H37zM42,12 h3v1H42zM5 13h1v1H5zM8 13h1v1H8zM14 13h1v1H14zM16 13h1v1H16zM18 13h2v1H18zM21 13h1v1H21zM24 13h1v1H24zM26 13h2v1H26zM29 13h1v1H29zM32 13h1v1H32zM34 13h3v1H34zM38 13h1v1H38zM40 13h1v1H40zM42 13h1v1H42zM44,13 h1v1H44zM5 14h2v1H5zM8 14h5v1H8zM14 14h2v1H14zM17 14h3v1H17zM21 14h3v1H21zM27 14h3v1H27zM31 14h1v1H31zM33 14h1v1H33zM36 14h1v1H36zM38 14h1v1H38zM40 14h1v1H40zM43 14h1v1H43zM4 15h6v1H4zM12 15h1v1H12zM14 15h1v1H14zM17 15h2v1H17zM20 15h4v1H20zM29 15h2v1H29zM34 15h5v1H34zM41 15h1v1H41zM44,15 h1v1H44zM7 16h2v1H7zM10 16h3v1H10zM17 16h1v1H17zM19 16h1v1H19zM22 16h1v1H22zM25 16h2v1H25zM28 16h2v1H28zM31 16h1v1H31zM33 16h4v1H33zM38 16h1v1H38zM41 16h3v1H41zM4 17h2v1H4zM8 17h1v1H8zM13 17h1v1H13zM15 17h2v1H15zM18 17h1v1H18zM21 17h7v1H21zM29 17h5v1H29zM37 17h1v1H37zM39 17h4v1H39zM44,17 h1v1H44zM4 18h1v1H4zM6 18h2v1H6zM9 18h4v1H9zM14 18h1v1H14zM16 18h1v1H16zM19 18h1v1H19zM23 18h1v1H23zM26 18h1v1H26zM28 18h1v1H28zM30 18h1v1H30zM34 18h1v1H34zM36 18h2v1H36zM39 18h1v1H39zM41 18h1v1H41zM43 18h1v1H43zM4 19h2v1H4zM9 19h1v1H9zM11 19h1v1H11zM13 19h1v1H13zM15 19h5v1H15zM24 19h1v1H24zM26 19h1v1H26zM29 19h1v1H29zM32 19h1v1H32zM34 19h1v1H34zM38 19h2v1H38zM43 19h1v1H43zM8 20h5v1H8zM20 20h2v1H20zM24 20h1v1H24zM26 20h3v1H26zM32 20h3v1H32zM36 20h2v1H36zM39 20h1v1H39zM42 20h1v1H42zM4 21h1v1H4zM6 21h4v1H6zM11 21h2v1H11zM14 21h1v1H14zM17 21h2v1H17zM22 21h1v1H22zM24 21h1v1H24zM27 21h1v1H27zM35 21h1v1H35zM38 21h4v1H38zM43,21 h2v1H43zM4 22h1v1H4zM8 22h7v1H8zM16 22h5v1H16zM24 22h2v1H24zM31 22h1v1H31zM34 22h1v1H34zM36 22h1v1H36zM38 22h1v1H38zM40 22h2v1H40zM8 23h2v1H8zM15 23h1v1H15zM17 23h1v1H17zM19 23h2v1H19zM25 23h2v1H25zM28 23h1v1H28zM30 23h2v1H30zM35 23h2v1H35zM40 23h2v1H40zM44,23 h1v1H44zM4 24h1v1H4zM6 24h2v1H6zM9 24h2v1H9zM13 24h2v1H13zM16 24h3v1H16zM21 24h2v1H21zM25 24h1v1H25zM27 24h1v1H27zM29 24h1v1H29zM31 24h2v1H31zM34 24h1v1H34zM37 24h1v1H37zM40 24h1v1H40zM42 24h1v1H42zM44,24 h1v1H44zM4 25h4v1H4zM9 25h1v1H9zM14 25h3v1H14zM18 25h4v1H18zM24 25h2v1H24zM27 25h1v1H27zM35 25h1v1H35zM37 25h2v1H37zM40 25h1v1H40zM42,25 h3v1H42zM5 26h2v1H5zM8 26h1v1H8zM10 26h4v1H10zM18 26h2v1H18zM22 26h1v1H22zM25 26h1v1H25zM27 26h1v1H27zM31 26h2v1H31zM37 26h1v1H37zM39 26h1v1H39zM5 27h3v1H5zM9 27h1v1H9zM12 27h2v1H12zM15 27h5v1H15zM23 27h1v1H23zM26 27h1v1H26zM28 27h4v1H28zM35 27h1v1H35zM37 27h3v1H37zM41 27h1v1H41zM43 27h1v1H43zM8 28h1v1H8zM10 28h1v1H10zM14 28h1v1H14zM16 28h2v1H16zM19 28h3v1H19zM23 28h1v1H23zM25 28h3v1H25zM29 28h1v1H29zM32 28h2v1H32zM37 28h1v1H37zM39 28h1v1H39zM42 28h2v1H42zM8 29h2v1H8zM11 29h1v1H11zM13 29h3v1H13zM18 29h1v1H18zM23 29h8v1H23zM32 29h1v1H32zM34 29h2v1H34zM38 29h1v1H38zM40 29h2v1H40zM43,29 h2v1H43zM6 30h3v1H6zM10 30h3v1H10zM14 30h3v1H14zM19 30h1v1H19zM22 30h2v1H22zM25 30h1v1H25zM29 30h1v1H29zM31 30h2v1H31zM36 30h2v1H36zM39 30h2v1H39zM5 31h3v1H5zM12 31h3v1H12zM18 31h1v1H18zM21 31h1v1H21zM23 31h3v1H23zM31 31h2v1H31zM34 31h3v1H34zM39 31h3v1H39zM4 32h2v1H4zM8 32h1v1H8zM10 32h2v1H10zM13 32h1v1H13zM16 32h1v1H16zM18 32h1v1H18zM21 32h1v1H21zM23 32h1v1H23zM26 32h1v1H26zM28 32h1v1H28zM31 32h5v1H31zM37 32h1v1H37zM41 32h2v1H41zM4 33h1v1H4zM7 33h2v1H7zM11 33h1v1H11zM14 33h2v1H14zM17 33h1v1H17zM21 33h1v1H21zM25 33h1v1H25zM31 33h1v1H31zM33 33h1v1H33zM36 33h1v1H36zM39 33h4v1H39zM44,33 h1v1H44zM4 34h1v1H4zM9 34h2v1H9zM14 34h2v1H14zM17 34h2v1H17zM20 34h1v1H20zM24 34h1v1H24zM26 34h1v1H26zM28 34h1v1H28zM30 34h3v1H30zM34 34h2v1H34zM37 34h3v1H37zM42 34h2v1H42zM4 35h1v1H4zM6 35h1v1H6zM8 35h2v1H8zM11 35h1v1H11zM21 35h11v1H21zM34 35h5v1H34zM40 35h2v1H40zM43,35 h2v1H43zM4 36h1v1H4zM6 36h2v1H6zM10 36h1v1H10zM13 36h2v1H13zM16 36h5v1H16zM22 36h2v1H22zM26 36h2v1H26zM29 36h5v1H29zM35 36h6v1H35zM42 36h2v1H42zM12 37h2v1H12zM20 37h5v1H20zM27 37h2v1H27zM30 37h1v1H30zM33 37h4v1H33zM40 37h2v1H40zM43,37 h2v1H43zM4 38h7v1H4zM15 38h3v1H15zM20 38h3v1H20zM25 38h3v1H25zM29 38h5v1H29zM35 38h2v1H35zM38 38h1v1H38zM40 38h2v1H40zM4 39h1v1H4zM10 39h1v1H10zM13 39h1v1H13zM15 39h2v1H15zM19 39h1v1H19zM22 39h1v1H22zM25 39h1v1H25zM28 39h2v1H28zM31 39h4v1H31zM36 39h1v1H36zM40 39h2v1H40zM4 40h1v1H4zM6 40h3v1H6zM10 40h1v1H10zM12 40h1v1H12zM14 40h1v1H14zM18 40h3v1H18zM23 40h2v1H23zM29 40h4v1H29zM36 40h5v1H36zM42,40 h3v1H42zM4 41h1v1H4zM6 41h3v1H6zM10 41h1v1H10zM12 41h2v1H12zM16 41h1v1H16zM18 41h1v1H18zM21 41h4v1H21zM28 41h1v1H28zM33 41h5v1H33zM39 41h1v1H39zM44,41 h1v1H44zM4 42h1v1H4zM6 42h3v1H6zM10 42h1v1H10zM12 42h1v1H12zM15 42h2v1H15zM19 42h3v1H19zM23 42h4v1H23zM28 42h1v1H28zM31 42h1v1H31zM33 42h1v1H33zM37 42h4v1H37zM42 42h2v1H42zM4 43h1v1H4zM10 43h1v1H10zM17 43h1v1H17zM21 43h2v1H21zM25 43h4v1H25zM30 43h3v1H30zM34 43h3v1H34zM38 43h1v1H38zM40 43h1v1H40zM43 43h1v1H43zM4 44h7v1H4zM14 44h2v1H14zM23 44h2v1H23zM26 44h1v1H26zM28 44h6v1H28zM35 44h1v1H35zM38 44h3v1H38zM42 44h1v1H42z"></path><rect x="18.5" y="18.5" height="12" width="12" fill="#fff" rx="2"></rect><image href="/avatar.webp" x="18.5" y="18.5" height="12" width="12"></image></svg>